<svg xmlns="http://www.w3.org/2000/svg" version="1.1" xmlns:xlink="http://www.w3.org/1999/xlink" xmlns:svgjs="http://svgjs.dev/svgjs" width="2000" height="1075" viewBox="0 0 2000 1075"><g transform="matrix(1,0,0,1,-1.2112696095522324,-1.0770916613446389)"><svg viewBox="0 0 396 213" data-background-color="#f4efec" preserveAspectRatio="xMidYMid meet" height="1075" width="2000" xmlns="http://www.w3.org/2000/svg" xmlns:xlink="http://www.w3.org/1999/xlink"><g id="tight-bounds" transform="matrix(1,0,0,1,0.24008861730862918,0.2134144408059626)"><svg viewBox="0 0 395.52 212.57316092550064" height="212.57316092550064" width="395.52"><g><svg viewBox="0 0 395.52 212.57316092550064" height="212.57316092550064" width="395.52"><g transform="matrix(1,0,0,1,0,108.30086582704276)"><svg viewBox="0 0 395.52 104.27229509845789" height="104.27229509845789" width="395.52"><g id="textblocktransform"><svg viewBox="0 0 395.52 104.27229509845789" height="104.27229509845789" width="395.52" id="textblock"><g><svg viewBox="0 0 395.52 104.27229509845789" height="104.27229509845789" width="395.52"><path d="M394.594 22.364C392.735 11.541 387.435 8.532 387.435 8.532 371.165-2.616 350.86-0.213 332.619 1.389 300.414 1.454 268.339 3.835 236.208 5.112 168.767 5.307 100.749 2.103 33.643 10.004 27.339 12.429-6.54 10.48 1.121 23.75 3.129 29.27 10.456 35.396 10.232 40.461 11.236 41.349 12.631 39.314 13.226 40.591 15.309 44.033 18.711 42.409 21.501 44.444 17.614 49.878 20.403 54.402 23.062 59.142 18.377 60.376 12.371 59.792 9.675 63.883 9.396 66.849 7.89 66.286 6.235 66.156 5.026 66.069 2.59 66.394 2.999 67.325 4.394 70.507-1.594 72.347 2.162 75.464-0.422 78.841 3.948 81.763 3.353 85.422 3.278 86.158 3.687 86.785 4.338 86.959 7.22 87.889 3.018 89.708 3.464 91.678 33.029 105.142 65.104 95.834 95.394 102.025 103.259 97.695 97.346 103.562 100.489 102.653 102.943 101.592 104.728 105.986 107.499 103.497 107.927 102.782 107.276 101.094 108.8 101.419 109.6 101.592 110.307 101.549 110.418 100.553 110.586 99.059 109.117 99.99 108.726 99.211 112.947 95.271 111.906 104.644 115.866 104.254 115.68 103.107 114.528 101.462 116.889 101.678 119.232 100.033 119.306 98.67 121.389 102.371 121.463 103.172 121.835 103.735 122.43 104.125 128.938 100.098 135.409 105.553 142.233 103.735 146.417 101.743 150.433 104.817 154.672 104.06 156.16 103.454 157.666 102.371 159.098 104.19 176.632 104.579 195.319 102.956 211.943 104.254 256.364 101.83 303.836 105.25 350.674 102.046 361.719 100.813 373.192 99.059 383.958 97.652 383.958 97.652 392.679 93.799 392.679 76.482S394.538 61.329 394.817 47.54C395.096 33.751 396.398 33.188 394.538 22.364Z" opacity="1" fill="#5201fe" data-fill-palette-color="tertiary"></path><g transform="matrix(1,0,0,1,55.76832,26.230666666666668)"><svg width="283.98335999999995" viewBox="2 -37.7 210.73 38.45" height="51.81096176512455" data-palette-color="#ffffff"><path d="M17.7-35.25Q20.35-35.25 22.28-34.3 24.2-33.35 25.8-31.55L25.8-31.55 22.4-28.2Q21.3-29.3 20.15-29.85 19-30.4 17.65-30.4L17.65-30.4Q14.45-30.4 12.4-27.53 10.35-24.65 9.43-20.4 8.5-16.15 8.5-11.8L8.5-11.8Q8.5-7.95 9.73-6.15 10.95-4.35 13.2-4.35L13.2-4.35Q14.8-4.35 16.03-4.98 17.25-5.6 19.25-7.05L19.25-7.05 21.6-3.25Q17.3 0.75 12.15 0.75L12.15 0.75Q7.5 0.75 4.75-2.6 2-5.95 2-12.15L2-12.15Q2-18.05 3.73-23.33 5.45-28.6 9-31.93 12.55-35.25 17.7-35.25L17.7-35.25ZM35.65-37.7L31.25-5.85Q31.2-5.65 31.2-5.35L31.2-5.35Q31.2-4.25 32.15-4.25L32.15-4.25Q32.7-4.25 33.25-4.45L33.25-4.45 33.9-0.2Q32.2 0.7 30 0.7L30 0.7Q27.65 0.7 26.37-0.63 25.1-1.95 25.1-4.35L25.1-4.35Q25.1-4.8 25.2-5.7L25.2-5.7 29.6-37.05 35.65-37.7ZM46.1 0.75Q41.95 0.75 39.65-1.93 37.35-4.6 37.35-9.4L37.35-9.4Q37.35-13.8 38.72-17.85 40.1-21.9 42.97-24.53 45.85-27.15 50.1-27.15L50.1-27.15Q54.25-27.15 56.52-24.53 58.8-21.9 58.8-17.05L58.8-17.05Q58.8-12.7 57.45-8.63 56.1-4.55 53.22-1.9 50.35 0.75 46.1 0.75L46.1 0.75ZM46.5-3.95Q48.7-3.95 50.07-6.23 51.45-8.5 52.05-11.68 52.65-14.85 52.65-17.8L52.65-17.8Q52.65-22.5 49.7-22.5L49.7-22.5Q47.5-22.5 46.12-20.25 44.75-18 44.15-14.8 43.55-11.6 43.55-8.65L43.55-8.65Q43.55-3.95 46.5-3.95L46.5-3.95ZM67.09 0.75Q64.69 0.75 63.27-0.88 61.84-2.5 61.84-5.25L61.84-5.25Q61.84-6.25 61.94-6.8L61.94-6.8 64.64-26.45 70.69-26.45 67.99-7.15Q67.94-6.85 67.94-6.35L67.94-6.35Q67.94-4.4 69.34-4.4L69.34-4.4Q71.54-4.4 74.14-9.05L74.14-9.05 76.64-26.45 82.64-26.45 78.94 0 73.74 0 73.99-4.05Q72.44-1.7 70.89-0.48 69.34 0.75 67.09 0.75L67.09 0.75ZM102.69-37.6L108.69-37 103.49 0 98.14 0 98.29-3.6Q96.94-1.45 95.34-0.35 93.74 0.75 91.64 0.75L91.64 0.75Q88.44 0.75 86.69-1.73 84.94-4.2 84.94-8.6L84.94-8.6Q84.94-13 86.19-17.3 87.44-21.6 89.97-24.4 92.49-27.2 96.04-27.2L96.04-27.2Q99.29-27.2 100.89-24.45L100.89-24.45 102.69-37.6ZM97.04-22.55Q95.09-22.55 93.74-20.3 92.39-18.05 91.74-14.78 91.09-11.5 91.09-8.55L91.09-8.55Q91.09-3.9 93.74-3.9L93.74-3.9Q95.04-3.9 96.24-5.15 97.44-6.4 98.69-8.8L98.69-8.8 100.24-20.05Q99.64-21.35 98.92-21.95 98.19-22.55 97.04-22.55L97.04-22.55ZM122.99-13.2L110.29-13.2 110.94-18.1 123.64-18.1 122.99-13.2ZM142.84-35.25Q145.49-35.25 147.41-34.3 149.34-33.35 150.94-31.55L150.94-31.55 147.54-28.2Q146.44-29.3 145.29-29.85 144.14-30.4 142.79-30.4L142.79-30.4Q139.59-30.4 137.54-27.53 135.49-24.65 134.56-20.4 133.64-16.15 133.64-11.8L133.64-11.8Q133.64-7.95 134.86-6.15 136.09-4.35 138.34-4.35L138.34-4.35Q139.94-4.35 141.16-4.98 142.39-5.6 144.39-7.05L144.39-7.05 146.74-3.25Q142.44 0.75 137.29 0.75L137.29 0.75Q132.64 0.75 129.89-2.6 127.14-5.95 127.14-12.15L127.14-12.15Q127.14-18.05 128.86-23.33 130.59-28.6 134.14-31.93 137.69-35.25 142.84-35.25L142.84-35.25ZM165.63-27.2Q167.98-27.2 169.41-25.55 170.83-23.9 170.83-21.05L170.83-21.05Q170.83-20.2 170.68-19.3L170.68-19.3 167.93 0 161.88 0 164.48-18.6Q164.58-19.4 164.58-19.7L164.58-19.7Q164.58-21.85 163.08-21.85L163.08-21.85Q160.98-21.85 157.93-15.7L157.93-15.7 155.83 0 149.78 0 154.98-37 161.08-37.6 158.93-22.35Q161.78-27.2 165.63-27.2L165.63-27.2ZM187.28-27.15Q191.43-27.15 195.43-24.95L195.43-24.95 192.83-6.8Q192.68-5.9 192.68-5.25L192.68-5.25Q192.68-4.6 192.93-4.17 193.18-3.75 193.78-3.45L193.78-3.45 191.88 0.65Q187.88 0.15 187.18-3.25L187.18-3.25Q185.73-1.3 184.21-0.28 182.68 0.75 180.63 0.75L180.63 0.75Q177.38 0.75 175.56-1.75 173.73-4.25 173.73-8.5L173.73-8.5Q173.73-13.15 175.13-17.4 176.53-21.65 179.58-24.4 182.63-27.15 187.28-27.15L187.28-27.15ZM186.93-22.65Q184.58-22.65 183.01-20.55 181.43-18.45 180.66-15.18 179.88-11.9 179.88-8.4L179.88-8.4Q179.88-6 180.53-4.95 181.18-3.9 182.48-3.9L182.48-3.9Q183.68-3.9 184.71-4.88 185.73-5.85 186.98-7.75L186.98-7.75 188.98-22.25Q188.03-22.65 186.93-22.65L186.93-22.65ZM207.18-22L205.03-6.8Q204.98-6.55 204.98-6.1L204.98-6.1Q204.98-4.2 206.73-4.2L206.73-4.2Q207.33-4.2 207.88-4.4 208.43-4.6 209.28-5.05L209.28-5.05 210.78-1.1Q208.18 0.75 205.03 0.75L205.03 0.75Q202.13 0.75 200.53-0.9 198.93-2.55 198.93-5.45L198.93-5.45Q198.93-5.9 199.03-7L199.03-7 201.13-22 197.93-22 198.58-26.45 201.98-26.45 203.48-32.45 208.73-33.05 207.78-26.45 212.73-26.45 211.38-22 207.18-22Z" opacity="1" transform="matrix(1,0,0,1,0,0)" fill="#ffffff" class="wordmark-text-0" data-fill-palette-color="quaternary" id="text-0"></path></svg></g></svg></g></svg></g></svg></g><g transform="matrix(1,0,0,1,149.7252293913104,0)"><svg viewBox="0 0 96.06954121737921 96.06954121737921" height="96.06954121737921" width="96.06954121737921"><g><svg xmlns="http://www.w3.org/2000/svg" xmlns:xlink="http://www.w3.org/1999/xlink" version="1.1" x="0" y="0" viewBox="0 0 100 100" style="enable-background:new 0 0 100 100;" xml:space="preserve" height="96.06954121737921" width="96.06954121737921" class="icon-icon-0" data-fill-palette-color="accent" id="icon-0"><g fill="#5a00ee" data-fill-palette-color="accent"><path d="M81.177 38.165A30.45 30.45 0 0 1 78.418 50.317C87.427 51.818 87.5 59.155 87.5 62.5 87.5 65.601 87.5 75 75.012 75H62.5C54.357 75 47.07 78.931 42.505 85.01 39.478 82.715 37.5 79.077 37.5 75V62.5C37.5 60.028 37.939 58.081 38.623 56.476 38.257 56.409 37.891 56.25 37.5 56.25H25.635A30.6 30.6 0 0 0 25.012 62.5V75C25.012 88.807 36.194 100 50 100 50 93.091 55.591 87.5 62.5 87.5H75.012C87.5 87.5 100 80.469 100 62.5 100 47.211 91.309 40.125 81.177 38.165" fill="#5a00ee" data-fill-palette-color="accent"></path></g><path d="M50 12.5C54.663 12.5 62.5 14.123 62.5 25V37.5C62.5 41.59 60.522 45.221 57.495 47.504 52.93 41.437 45.654 37.5 37.5 37.5H25.012C12.5 37.5 12.5 28.095 12.5 25 12.5 21.265 12.5 12.5 25.012 12.5zM50 0H25.012C12.5 0 0 6.641 0 25 0 42.969 12.5 50 25.012 50H37.5C44.409 50 50 55.604 50 62.5 63.807 62.5 75.012 51.307 75.012 37.5V25C75.012 7.745 62.5 0 50 0" fill="#5a00ee" data-fill-palette-color="accent"></path></svg></g></svg></g><g></g></svg></g><defs></defs></svg><rect width="395.52" height="212.57316092550064" fill="none" stroke="none" visibility="hidden"></rect></g></svg></g></svg>